<svg width="20" height="20" viewBox="0 0 20 20" fill="none" xmlns="http://www.w3.org/2000/svg">
<g clip-path="url(#clip0_46_144)">
<path d="M10 9.16678L6.66669 17.5001M8.31169 13.8101C9.21833 14.2121 10.2386 14.2776 11.1892 13.9947C12.1398 13.7118 12.9583 13.0991 13.4976 12.2668C14.0369 11.4344 14.2616 10.437 14.1313 9.45385C14.001 8.47067 13.5243 7.56619 12.7869 6.90301C12.0494 6.23983 11.0996 5.86144 10.1082 5.83586C9.11674 5.81028 8.14868 6.13919 7.37803 6.76346C6.60737 7.38772 6.08467 8.26641 5.90387 9.24157C5.72308 10.2167 5.89605 11.2244 6.39169 12.0834" stroke="#8F5E2E" stroke-width="1.5" stroke-linecap="round" stroke-linejoin="round"/>
<path d="M10 18.3334C14.6024 18.3334 18.3333 14.6024 18.3333 10.0001C18.3333 5.39771 14.6024 1.66675 10 1.66675C5.39765 1.66675 1.66669 5.39771 1.66669 10.0001C1.66669 14.6024 5.39765 18.3334 10 18.3334Z" stroke="#8F5E2E" stroke-width="1.5" stroke-linecap="round" stroke-linejoin="round"/>
</g>
<defs>
<clipPath id="clip0_46_144">
<rect width="20" height="20" fill="white"/>
</clipPath>
</defs>
</svg>
