<svg width="20" height="20" viewBox="0 0 20 20" fill="none" xmlns="http://www.w3.org/2000/svg">
<g clip-path="url(#clip0_46_142)">
<path d="M10 0.833242C8.22502 0.833242 6.95002 0.853798 6.17502 0.894909C5.48759 0.920358 4.80661 1.03722 4.15002 1.24241C3.48085 1.48074 2.87502 1.86574 2.36669 2.36741C1.85835 2.86908 1.48335 3.47491 1.24169 4.14991C1.0365 4.8065 0.919635 5.48748 0.894186 6.17491C0.852519 6.95324 0.83252 8.22491 0.83252 9.99991C0.83252 11.7749 0.853075 13.0499 0.894186 13.8249C0.919186 14.5124 1.03585 15.1916 1.24169 15.8499C1.48087 16.5199 1.86501 17.1288 2.36669 17.6332C2.86335 18.1332 3.47502 18.5082 4.15002 18.7166C4.80085 18.9499 5.48335 19.0807 6.17502 19.1049C6.95252 19.1466 8.22502 19.1666 10 19.1666C11.775 19.1666 13.05 19.146 13.825 19.1049C14.5125 19.0795 15.1934 18.9626 15.85 18.7574C16.52 18.5182 17.1289 18.1341 17.6334 17.6324C18.135 17.128 18.5192 16.5191 18.7584 15.8491C18.9642 15.1924 19.0809 14.5074 19.1059 13.8241C19.1475 13.0466 19.1675 11.7741 19.1675 9.99908C19.1675 8.22408 19.1542 6.95741 19.1267 6.19074C19.0901 5.49469 18.9664 4.80598 18.7584 4.14074C18.5192 3.47075 18.135 2.86182 17.6334 2.35741C17.1289 1.85574 16.52 1.4716 15.85 1.23241C15.1934 1.02722 14.5125 0.910358 13.825 0.884909C13.0475 0.843242 11.775 0.823242 10 0.823242V0.833242ZM9.34502 17.4999C8.25335 17.4999 7.41169 17.4866 6.81169 17.4591C6.06446 17.4465 5.32207 17.3364 4.60335 17.1316C4.20323 16.9766 3.83988 16.7397 3.53653 16.4362C3.23318 16.1327 2.99652 15.7693 2.84169 15.3691C2.63685 14.6504 2.52675 13.908 2.51419 13.1607C2.48669 12.5607 2.47252 11.7107 2.47252 10.6274V9.31908C2.47252 8.22741 2.48669 7.38574 2.51419 6.78574C2.52175 6.03811 2.63195 5.29506 2.84169 4.57741C2.98907 4.17351 3.22296 3.80672 3.52698 3.5027C3.83099 3.19868 4.19779 2.96479 4.60169 2.81741C5.3204 2.61257 6.06279 2.50247 6.81002 2.48991C7.41002 2.46241 8.26002 2.44824 9.34335 2.44824H10.6517C11.7434 2.44824 12.585 2.46241 13.185 2.48991C13.9327 2.49747 14.6757 2.60767 15.3934 2.81741C15.7974 2.96469 16.1644 3.19853 16.4685 3.50256C16.7727 3.80658 17.0067 4.17343 17.1542 4.57741C17.3634 5.29574 17.4734 6.03574 17.4817 6.78574C17.5084 7.35852 17.522 8.20297 17.5225 9.31908V10.6274C17.5225 11.7191 17.5084 12.5607 17.4817 13.1607C17.4684 13.9082 17.3584 14.6524 17.1542 15.3691C16.9969 15.7681 16.7601 16.131 16.4584 16.4357C16.1551 16.7394 15.7918 16.9764 15.3917 17.1316C14.6736 17.3393 13.9308 17.4495 13.1834 17.4591C12.6111 17.4869 11.7667 17.5005 10.65 17.4999H9.34169H9.34502ZM14.9117 3.91658C14.6854 3.91632 14.4642 3.98329 14.2761 4.10898C14.088 4.23467 13.9415 4.41342 13.8551 4.62253C13.7688 4.83165 13.7465 5.0617 13.7912 5.28349C13.8358 5.50528 13.9453 5.70881 14.1059 5.86824C14.2099 5.97711 14.3352 6.06346 14.4739 6.12194C14.6127 6.18043 14.7619 6.2098 14.9125 6.20824C15.0602 6.21102 15.2068 6.18212 15.3423 6.12347C15.4779 6.06482 15.5993 5.97779 15.6984 5.86824C15.9064 5.64829 16.0333 5.3641 16.0584 5.06241C16.0543 4.75965 15.9321 4.47045 15.7179 4.25643C15.5037 4.0424 15.2144 3.92046 14.9117 3.91658ZM10.0034 5.39158C9.19765 5.38615 8.40559 5.59957 7.71169 6.00908C7.01694 6.41192 6.43953 6.98933 6.03669 7.68408C5.63195 8.37999 5.41874 9.17069 5.41874 9.97574C5.41874 10.7808 5.63195 11.5715 6.03669 12.2674C6.4386 12.9629 7.01622 13.5405 7.71169 13.9424C8.4076 14.3471 9.1983 14.5604 10.0034 14.5604C10.8084 14.5604 11.5991 14.3471 12.295 13.9424C12.9905 13.5405 13.5681 12.9629 13.97 12.2674C14.3748 11.5715 14.588 10.7808 14.588 9.97574C14.588 9.17069 14.3748 8.37999 13.97 7.68408C13.5672 6.98933 12.9898 6.41192 12.295 6.00908C11.6011 5.59957 10.8091 5.38615 10.0034 5.39158ZM10.0034 12.9249C9.61615 12.9247 9.23279 12.848 8.87529 12.6993C8.51778 12.5505 8.19315 12.3327 7.92002 12.0582C7.36647 11.5061 7.05475 10.7568 7.05335 9.97491C7.05359 9.5877 7.13027 9.20435 7.27899 8.84684C7.42771 8.48933 7.64556 8.16471 7.92002 7.89158C8.47218 7.33802 9.2215 7.02631 10.0034 7.02491C10.3906 7.02515 10.7739 7.10183 11.1314 7.25055C11.4889 7.39927 11.8136 7.61711 12.0867 7.89158C12.6402 8.44373 12.952 9.19306 12.9534 9.97491C12.9531 10.3621 12.8764 10.7455 12.7277 11.103C12.579 11.4605 12.3611 11.7851 12.0867 12.0582C11.5345 12.6118 10.7852 12.9235 10.0034 12.9249Z" fill="#8F5E2E"/>
</g>
<defs>
<clipPath id="clip0_46_142">
<rect width="20" height="20" fill="white"/>
</clipPath>
</defs>
</svg>
