<svg width="20" height="20" viewBox="0 0 20 20" fill="none" xmlns="http://www.w3.org/2000/svg">
<path fill-rule="evenodd" clip-rule="evenodd" d="M3.88747 18.7501C3.18872 18.7501 2.52497 18.4726 2.02497 17.9789C1.52497 17.4851 1.25372 16.8151 1.25372 16.1164V3.87887C1.25372 3.18012 1.53122 2.51637 2.02497 2.01637C2.51872 1.51637 3.18872 1.24512 3.88747 1.24512H16.125C16.8237 1.24512 17.4875 1.52262 17.9875 2.01637C18.4875 2.51012 18.7587 3.18012 18.7587 3.87887V16.1164C18.7587 16.8151 18.4812 17.4789 17.9875 17.9789C17.4937 18.4789 16.8237 18.7501 16.125 18.7501H3.88747ZM14.575 11.3626H12.725V17.4751H16.125C16.3035 17.4756 16.4805 17.4408 16.6455 17.3727C16.8106 17.3046 16.9606 17.2045 17.0869 17.0783C17.2131 16.952 17.3132 16.802 17.3813 16.6369C17.4494 16.4719 17.4842 16.2949 17.4837 16.1164V3.87887C17.4839 3.70039 17.4489 3.52363 17.3806 3.3587C17.3124 3.19378 17.2123 3.04392 17.0861 2.91772C16.9599 2.79152 16.8101 2.69144 16.6451 2.62321C16.4802 2.55499 16.3035 2.51995 16.125 2.52012H3.88747C3.52741 2.52111 3.18239 2.66458 2.92779 2.91918C2.67318 3.17378 2.52971 3.51881 2.52872 3.87887V16.1164C2.52971 16.4764 2.67318 16.8215 2.92779 17.0761C3.18239 17.3307 3.52741 17.4741 3.88747 17.4751H10.6875V11.3626H8.64997V9.32512H10.6875V8.23012C10.6875 6.15512 11.6975 5.24262 13.425 5.24262C14.2337 5.24262 14.6687 5.30137 14.875 5.33012L14.8875 5.33137V7.28137H13.7125C13.12 7.28137 12.84 7.53512 12.755 8.04637C12.7346 8.17954 12.7249 8.31415 12.7262 8.44887V9.32012H14.8637L14.5725 11.3576L14.575 11.3626Z" fill="#8F5E2E"/>
</svg>
