<svg width="29" height="29" viewBox="0 0 29 29" fill="none" xmlns="http://www.w3.org/2000/svg">
<path fill-rule="evenodd" clip-rule="evenodd" d="M12.0099 3.92709H16.9907C19.2176 3.92709 20.9806 3.92709 22.3605 4.11197C23.7791 4.30289 24.9282 4.70405 25.8344 5.60789C27.079 6.84884 27.3811 8.55622 27.4766 10.8243V10.8533C27.4862 11.0514 27.4947 11.2532 27.4862 11.4236C27.4816 11.668 27.4199 11.908 27.3062 12.1244C27.2229 12.2693 27.1131 12.3972 26.9824 12.5014C26.8839 12.5792 26.7815 12.6518 26.6755 12.7189C26.4785 12.8434 26.2102 12.9932 25.8973 13.1684L25.8731 13.1805C25.6377 13.3112 25.4416 13.5024 25.305 13.7345C25.1685 13.9665 25.0965 14.2308 25.0965 14.5C25.0965 14.7692 25.1685 15.0335 25.305 15.2656C25.4416 15.4976 25.6377 15.6888 25.8731 15.8195L25.8973 15.8316C26.2114 16.0068 26.4773 16.1566 26.6755 16.2811C26.7782 16.3463 26.8857 16.4188 26.9824 16.4986C27.0718 16.5723 27.2059 16.6968 27.3062 16.8756C27.4512 17.1342 27.479 17.3952 27.4874 17.5764C27.4947 17.7456 27.4862 17.9486 27.4778 18.1468L27.4766 18.1758C27.3799 20.4426 27.0778 22.1512 25.8344 23.3921C24.9282 24.296 23.7803 24.6971 22.3605 24.8881C20.9806 25.0729 19.2176 25.0729 16.9907 25.0729H12.0111C9.78416 25.0729 8.0212 25.0729 6.64128 24.8881C5.22149 24.6971 4.07357 24.296 3.16732 23.3921C1.92274 22.1512 1.62066 20.4438 1.5252 18.1758V18.1468C1.51409 17.9569 1.51047 17.7666 1.51432 17.5764C1.52278 17.3952 1.55057 17.1342 1.69557 16.8756C1.77886 16.7307 1.88872 16.6028 2.01941 16.4986C2.11788 16.4208 2.22032 16.3482 2.32632 16.2811C2.52328 16.1566 2.79153 16.0068 3.10449 15.8316L3.12866 15.8195C3.36404 15.6888 3.56017 15.4976 3.69674 15.2656C3.8333 15.0335 3.90532 14.7692 3.90532 14.5C3.90532 14.2308 3.8333 13.9665 3.69674 13.7345C3.56017 13.5024 3.36404 13.3112 3.12866 13.1805L3.10449 13.1684C2.79032 12.9932 2.52449 12.8434 2.32632 12.7189C2.21942 12.6531 2.1169 12.5805 2.01941 12.5014C1.88872 12.3972 1.77886 12.2693 1.69557 12.1244C1.58142 11.9081 1.51935 11.6681 1.51432 11.4236C1.51009 11.2237 1.51412 11.0238 1.52641 10.8243C1.62066 8.55743 1.92274 6.84884 3.16732 5.60789C4.07357 4.70405 5.22149 4.30289 6.64128 4.11197C8.01999 3.92709 9.78174 3.92709 12.0099 3.92709ZM25.6774 17.7939V17.8181L25.6665 18.0996C25.5722 20.3423 25.2665 21.4008 24.5548 22.1089C24.0425 22.6212 23.3392 22.9281 22.12 23.0913C20.8755 23.258 19.2333 23.2604 16.9242 23.2604H12.0788C9.76966 23.2604 8.12753 23.258 6.88295 23.0913C5.66253 22.9281 4.96049 22.6212 4.44695 22.1089C3.73645 21.4008 3.43074 20.3423 3.33528 18.0996L3.32562 17.7939C3.47545 17.7009 3.69174 17.5801 4.01195 17.4012C4.52858 17.1132 4.95892 16.6924 5.2585 16.1823C5.55807 15.6723 5.71602 15.0915 5.71602 14.5C5.71602 13.9085 5.55807 13.3277 5.2585 12.8177C4.95892 12.3076 4.52858 11.8869 4.01195 11.5988C3.78067 11.4723 3.55185 11.3414 3.32562 11.2061V11.1819L3.33649 10.9004C3.43074 8.65772 3.73645 7.59922 4.44816 6.89114C4.96049 6.3788 5.66253 6.07189 6.88295 5.90876C8.12753 5.74201 9.76966 5.73959 12.0788 5.73959H16.9242C19.2333 5.73959 20.8755 5.74201 22.12 5.90876C23.3405 6.07189 24.0425 6.3788 24.556 6.89114C25.2653 7.59922 25.5722 8.65772 25.6665 10.9004L25.6774 11.1819V11.2061C25.5275 11.2991 25.3112 11.42 24.991 11.5988C24.4741 11.8866 24.0434 12.3073 23.7436 12.8174C23.4438 13.3274 23.2857 13.9083 23.2857 14.5C23.2857 15.0917 23.4438 15.6726 23.7436 16.1827C24.0434 16.6927 24.4741 17.1134 24.991 17.4012C25.31 17.5801 25.5275 17.7009 25.6774 17.7939ZM18.7657 10.2346C18.9354 10.4045 19.0307 10.6349 19.0307 10.875C19.0307 11.1152 18.9354 11.3455 18.7657 11.5154L11.5157 18.7654C11.3439 18.9255 11.1167 19.0127 10.8819 19.0085C10.6471 19.0044 10.4231 18.9093 10.2571 18.7432C10.091 18.5772 9.99592 18.3532 9.99178 18.1184C9.98764 17.8836 10.0748 17.6564 10.2349 17.4846L17.4849 10.2346C17.6548 10.0649 17.8851 9.96956 18.1253 9.96956C18.3654 9.96956 18.5958 10.0649 18.7657 10.2346Z" fill="#8F5E2E"/>
<path d="M18.7288 17.5208C18.7288 17.8413 18.6015 18.1487 18.3749 18.3753C18.1483 18.6019 17.841 18.7292 17.5205 18.7292C17.2 18.7292 16.8927 18.6019 16.6661 18.3753C16.4395 18.1487 16.3122 17.8413 16.3122 17.5208C16.3122 17.2004 16.4395 16.893 16.6661 16.6664C16.8927 16.4398 17.2 16.3125 17.5205 16.3125C17.841 16.3125 18.1483 16.4398 18.3749 16.6664C18.6015 16.893 18.7288 17.2004 18.7288 17.5208ZM12.6872 11.4792C12.6872 11.7996 12.5599 12.107 12.3333 12.3336C12.1067 12.5602 11.7993 12.6875 11.4788 12.6875C11.1584 12.6875 10.851 12.5602 10.6244 12.3336C10.3978 12.107 10.2705 11.7996 10.2705 11.4792C10.2705 11.1587 10.3978 10.8514 10.6244 10.6248C10.851 10.3981 11.1584 10.2708 11.4788 10.2708C11.7993 10.2708 12.1067 10.3981 12.3333 10.6248C12.5599 10.8514 12.6872 11.1587 12.6872 11.4792Z" fill="#8F5E2E"/>
</svg>
